<mxfile host="app.diagrams.net" modified="2024-03-26T12:40:40.493Z" agent="Mozilla/5.0 (Windows NT 10.0; Win64; x64) AppleWebKit/537.36 (KHTML, like Gecko) Chrome/122.0.0.0 Safari/537.36" etag="YZpwhscVgz6mPjB9L9Oh" version="24.0.8" type="device">
  <diagram name="Page-1" id="uhWG0Kt2cvPySUHTIQ52">
    <mxGraphModel dx="1938" dy="1482" grid="0" gridSize="10" guides="1" tooltips="1" connect="1" arrows="1" fold="1" page="0" pageScale="1" pageWidth="850" pageHeight="1100" math="0" shadow="0">
      <root>
        <mxCell id="0" />
        <mxCell id="1" parent="0" />
        <mxCell id="_TytWp_ZO3NwQASoRcPg-36" style="edgeStyle=none;curved=1;rounded=0;orthogonalLoop=1;jettySize=auto;html=1;exitX=1;exitY=0.5;exitDx=0;exitDy=0;entryX=0;entryY=0.5;entryDx=0;entryDy=0;strokeColor=default;align=center;verticalAlign=middle;fontFamily=Helvetica;fontSize=12;fontColor=default;labelBackgroundColor=default;startSize=8;endArrow=none;endFill=0;endSize=8;" edge="1" parent="1" source="_TytWp_ZO3NwQASoRcPg-1" target="_TytWp_ZO3NwQASoRcPg-33">
          <mxGeometry relative="1" as="geometry" />
        </mxCell>
        <mxCell id="_TytWp_ZO3NwQASoRcPg-41" value="N" style="edgeLabel;html=1;align=center;verticalAlign=middle;resizable=0;points=[];fontSize=12;fontFamily=Helvetica;fontColor=default;labelBackgroundColor=default;" vertex="1" connectable="0" parent="_TytWp_ZO3NwQASoRcPg-36">
          <mxGeometry x="-0.6193" y="3" relative="1" as="geometry">
            <mxPoint as="offset" />
          </mxGeometry>
        </mxCell>
        <mxCell id="_TytWp_ZO3NwQASoRcPg-1" value="manutenção" style="rounded=0;whiteSpace=wrap;html=1;" vertex="1" parent="1">
          <mxGeometry x="102" y="68" width="120" height="60" as="geometry" />
        </mxCell>
        <mxCell id="_TytWp_ZO3NwQASoRcPg-25" style="edgeStyle=none;curved=1;rounded=0;orthogonalLoop=1;jettySize=auto;html=1;exitX=0.5;exitY=0;exitDx=0;exitDy=0;entryX=0.5;entryY=1;entryDx=0;entryDy=0;strokeColor=default;align=center;verticalAlign=middle;fontFamily=Helvetica;fontSize=12;fontColor=default;labelBackgroundColor=default;startSize=8;endArrow=none;endFill=0;endSize=8;" edge="1" parent="1" source="_TytWp_ZO3NwQASoRcPg-3" target="_TytWp_ZO3NwQASoRcPg-1">
          <mxGeometry relative="1" as="geometry" />
        </mxCell>
        <mxCell id="_TytWp_ZO3NwQASoRcPg-3" value="id_manutencao" style="ellipse;whiteSpace=wrap;html=1;" vertex="1" parent="1">
          <mxGeometry x="187" y="263" width="97" height="71" as="geometry" />
        </mxCell>
        <mxCell id="_TytWp_ZO3NwQASoRcPg-23" style="edgeStyle=none;curved=1;rounded=0;orthogonalLoop=1;jettySize=auto;html=1;exitX=0.5;exitY=0;exitDx=0;exitDy=0;entryX=0.25;entryY=1;entryDx=0;entryDy=0;strokeColor=default;align=center;verticalAlign=middle;fontFamily=Helvetica;fontSize=12;fontColor=default;labelBackgroundColor=default;startSize=8;endArrow=none;endFill=0;endSize=8;" edge="1" parent="1" source="_TytWp_ZO3NwQASoRcPg-4" target="_TytWp_ZO3NwQASoRcPg-1">
          <mxGeometry relative="1" as="geometry" />
        </mxCell>
        <mxCell id="_TytWp_ZO3NwQASoRcPg-4" value="inicio_manutencao" style="ellipse;whiteSpace=wrap;html=1;" vertex="1" parent="1">
          <mxGeometry x="-60" y="263" width="103" height="75" as="geometry" />
        </mxCell>
        <mxCell id="_TytWp_ZO3NwQASoRcPg-24" style="edgeStyle=none;curved=1;rounded=0;orthogonalLoop=1;jettySize=auto;html=1;exitX=0.5;exitY=0;exitDx=0;exitDy=0;strokeColor=default;align=center;verticalAlign=middle;fontFamily=Helvetica;fontSize=12;fontColor=default;labelBackgroundColor=default;startSize=8;endArrow=none;endFill=0;endSize=8;" edge="1" parent="1" source="_TytWp_ZO3NwQASoRcPg-5" target="_TytWp_ZO3NwQASoRcPg-1">
          <mxGeometry relative="1" as="geometry" />
        </mxCell>
        <mxCell id="_TytWp_ZO3NwQASoRcPg-5" value="fim&lt;span style=&quot;background-color: initial;&quot;&gt;_manutencao&lt;/span&gt;" style="ellipse;whiteSpace=wrap;html=1;" vertex="1" parent="1">
          <mxGeometry x="61" y="263.5" width="103" height="74" as="geometry" />
        </mxCell>
        <mxCell id="_TytWp_ZO3NwQASoRcPg-22" style="edgeStyle=none;curved=1;rounded=0;orthogonalLoop=1;jettySize=auto;html=1;exitX=0.5;exitY=0;exitDx=0;exitDy=0;entryX=0;entryY=1;entryDx=0;entryDy=0;strokeColor=default;align=center;verticalAlign=middle;fontFamily=Helvetica;fontSize=12;fontColor=default;labelBackgroundColor=default;startSize=8;endArrow=none;endFill=0;endSize=8;" edge="1" parent="1" source="_TytWp_ZO3NwQASoRcPg-7" target="_TytWp_ZO3NwQASoRcPg-1">
          <mxGeometry relative="1" as="geometry" />
        </mxCell>
        <mxCell id="_TytWp_ZO3NwQASoRcPg-7" value="descricao" style="ellipse;whiteSpace=wrap;html=1;" vertex="1" parent="1">
          <mxGeometry x="-185" y="261.5" width="103" height="74" as="geometry" />
        </mxCell>
        <mxCell id="_TytWp_ZO3NwQASoRcPg-27" style="edgeStyle=none;curved=1;rounded=0;orthogonalLoop=1;jettySize=auto;html=1;exitX=0.5;exitY=0;exitDx=0;exitDy=0;entryX=1;entryY=1;entryDx=0;entryDy=0;strokeColor=default;align=center;verticalAlign=middle;fontFamily=Helvetica;fontSize=12;fontColor=default;labelBackgroundColor=default;startSize=8;endArrow=none;endFill=0;endSize=8;" edge="1" parent="1" source="_TytWp_ZO3NwQASoRcPg-8" target="_TytWp_ZO3NwQASoRcPg-1">
          <mxGeometry relative="1" as="geometry" />
        </mxCell>
        <mxCell id="_TytWp_ZO3NwQASoRcPg-8" value="placa" style="ellipse;whiteSpace=wrap;html=1;fontStyle=4" vertex="1" parent="1">
          <mxGeometry x="429" y="264" width="103" height="74" as="geometry" />
        </mxCell>
        <mxCell id="_TytWp_ZO3NwQASoRcPg-26" style="edgeStyle=none;curved=1;rounded=0;orthogonalLoop=1;jettySize=auto;html=1;exitX=0.5;exitY=0;exitDx=0;exitDy=0;entryX=0.75;entryY=1;entryDx=0;entryDy=0;strokeColor=default;align=center;verticalAlign=middle;fontFamily=Helvetica;fontSize=12;fontColor=default;labelBackgroundColor=default;startSize=8;endArrow=none;endFill=0;endSize=8;" edge="1" parent="1" source="_TytWp_ZO3NwQASoRcPg-9" target="_TytWp_ZO3NwQASoRcPg-1">
          <mxGeometry relative="1" as="geometry" />
        </mxCell>
        <mxCell id="_TytWp_ZO3NwQASoRcPg-9" value="matricula" style="ellipse;whiteSpace=wrap;html=1;fontStyle=4" vertex="1" parent="1">
          <mxGeometry x="307" y="263" width="103" height="74" as="geometry" />
        </mxCell>
        <mxCell id="_TytWp_ZO3NwQASoRcPg-10" value="veiculo" style="rounded=0;whiteSpace=wrap;html=1;" vertex="1" parent="1">
          <mxGeometry x="793" y="72" width="120" height="60" as="geometry" />
        </mxCell>
        <mxCell id="_TytWp_ZO3NwQASoRcPg-28" style="edgeStyle=none;curved=1;rounded=0;orthogonalLoop=1;jettySize=auto;html=1;exitX=0.5;exitY=0;exitDx=0;exitDy=0;entryX=0;entryY=1;entryDx=0;entryDy=0;strokeColor=default;align=center;verticalAlign=middle;fontFamily=Helvetica;fontSize=12;fontColor=default;labelBackgroundColor=default;startSize=8;endArrow=none;endFill=0;endSize=8;" edge="1" parent="1" source="_TytWp_ZO3NwQASoRcPg-11" target="_TytWp_ZO3NwQASoRcPg-10">
          <mxGeometry relative="1" as="geometry" />
        </mxCell>
        <mxCell id="_TytWp_ZO3NwQASoRcPg-11" value="placa" style="ellipse;whiteSpace=wrap;html=1;" vertex="1" parent="1">
          <mxGeometry x="603" y="260" width="103" height="74" as="geometry" />
        </mxCell>
        <mxCell id="_TytWp_ZO3NwQASoRcPg-29" style="edgeStyle=none;curved=1;rounded=0;orthogonalLoop=1;jettySize=auto;html=1;exitX=0.5;exitY=0;exitDx=0;exitDy=0;entryX=0.25;entryY=1;entryDx=0;entryDy=0;strokeColor=default;align=center;verticalAlign=middle;fontFamily=Helvetica;fontSize=12;fontColor=default;labelBackgroundColor=default;startSize=8;endArrow=none;endFill=0;endSize=8;" edge="1" parent="1" source="_TytWp_ZO3NwQASoRcPg-12" target="_TytWp_ZO3NwQASoRcPg-10">
          <mxGeometry relative="1" as="geometry" />
        </mxCell>
        <mxCell id="_TytWp_ZO3NwQASoRcPg-12" value="modelo" style="ellipse;whiteSpace=wrap;html=1;" vertex="1" parent="1">
          <mxGeometry x="740" y="260" width="103" height="74" as="geometry" />
        </mxCell>
        <mxCell id="_TytWp_ZO3NwQASoRcPg-30" style="edgeStyle=none;curved=1;rounded=0;orthogonalLoop=1;jettySize=auto;html=1;exitX=0.5;exitY=0;exitDx=0;exitDy=0;entryX=0.75;entryY=1;entryDx=0;entryDy=0;strokeColor=default;align=center;verticalAlign=middle;fontFamily=Helvetica;fontSize=12;fontColor=default;labelBackgroundColor=default;startSize=8;endArrow=none;endFill=0;endSize=8;" edge="1" parent="1" source="_TytWp_ZO3NwQASoRcPg-13" target="_TytWp_ZO3NwQASoRcPg-10">
          <mxGeometry relative="1" as="geometry" />
        </mxCell>
        <mxCell id="_TytWp_ZO3NwQASoRcPg-13" value="marca" style="ellipse;whiteSpace=wrap;html=1;" vertex="1" parent="1">
          <mxGeometry x="874" y="264" width="103" height="74" as="geometry" />
        </mxCell>
        <mxCell id="_TytWp_ZO3NwQASoRcPg-31" style="edgeStyle=none;curved=1;rounded=0;orthogonalLoop=1;jettySize=auto;html=1;exitX=0.5;exitY=0;exitDx=0;exitDy=0;entryX=1;entryY=1;entryDx=0;entryDy=0;strokeColor=default;align=center;verticalAlign=middle;fontFamily=Helvetica;fontSize=12;fontColor=default;labelBackgroundColor=default;startSize=8;endArrow=none;endFill=0;endSize=8;" edge="1" parent="1" source="_TytWp_ZO3NwQASoRcPg-14" target="_TytWp_ZO3NwQASoRcPg-10">
          <mxGeometry relative="1" as="geometry" />
        </mxCell>
        <mxCell id="_TytWp_ZO3NwQASoRcPg-14" value="ano" style="ellipse;whiteSpace=wrap;html=1;" vertex="1" parent="1">
          <mxGeometry x="1008" y="260" width="103" height="74" as="geometry" />
        </mxCell>
        <mxCell id="_TytWp_ZO3NwQASoRcPg-15" value="funcionario" style="rounded=0;whiteSpace=wrap;html=1;" vertex="1" parent="1">
          <mxGeometry x="-529.5" y="68" width="120" height="60" as="geometry" />
        </mxCell>
        <mxCell id="_TytWp_ZO3NwQASoRcPg-19" style="edgeStyle=none;curved=1;rounded=0;orthogonalLoop=1;jettySize=auto;html=1;exitX=0.5;exitY=0;exitDx=0;exitDy=0;entryX=0.25;entryY=1;entryDx=0;entryDy=0;fontSize=12;startSize=8;endSize=8;endArrow=none;endFill=0;" edge="1" parent="1" source="_TytWp_ZO3NwQASoRcPg-16" target="_TytWp_ZO3NwQASoRcPg-15">
          <mxGeometry relative="1" as="geometry" />
        </mxCell>
        <mxCell id="_TytWp_ZO3NwQASoRcPg-16" value="matricula" style="ellipse;whiteSpace=wrap;html=1;" vertex="1" parent="1">
          <mxGeometry x="-655" y="256" width="103" height="74" as="geometry" />
        </mxCell>
        <mxCell id="_TytWp_ZO3NwQASoRcPg-20" style="edgeStyle=none;curved=1;rounded=0;orthogonalLoop=1;jettySize=auto;html=1;exitX=0.5;exitY=0;exitDx=0;exitDy=0;entryX=0.5;entryY=1;entryDx=0;entryDy=0;strokeColor=default;align=center;verticalAlign=middle;fontFamily=Helvetica;fontSize=12;fontColor=default;labelBackgroundColor=default;startSize=8;endArrow=none;endFill=0;endSize=8;" edge="1" parent="1" source="_TytWp_ZO3NwQASoRcPg-17" target="_TytWp_ZO3NwQASoRcPg-15">
          <mxGeometry relative="1" as="geometry" />
        </mxCell>
        <mxCell id="_TytWp_ZO3NwQASoRcPg-17" value="nome" style="ellipse;whiteSpace=wrap;html=1;" vertex="1" parent="1">
          <mxGeometry x="-521" y="256" width="103" height="74" as="geometry" />
        </mxCell>
        <mxCell id="_TytWp_ZO3NwQASoRcPg-21" style="edgeStyle=none;curved=1;rounded=0;orthogonalLoop=1;jettySize=auto;html=1;exitX=0.5;exitY=0;exitDx=0;exitDy=0;entryX=0.75;entryY=1;entryDx=0;entryDy=0;strokeColor=default;align=center;verticalAlign=middle;fontFamily=Helvetica;fontSize=12;fontColor=default;labelBackgroundColor=default;startSize=8;endArrow=none;endFill=0;endSize=8;" edge="1" parent="1" source="_TytWp_ZO3NwQASoRcPg-18" target="_TytWp_ZO3NwQASoRcPg-15">
          <mxGeometry relative="1" as="geometry" />
        </mxCell>
        <mxCell id="_TytWp_ZO3NwQASoRcPg-18" value="telefone" style="ellipse;whiteSpace=wrap;html=1;" vertex="1" parent="1">
          <mxGeometry x="-384" y="256" width="103" height="74" as="geometry" />
        </mxCell>
        <mxCell id="_TytWp_ZO3NwQASoRcPg-37" style="edgeStyle=none;curved=1;rounded=0;orthogonalLoop=1;jettySize=auto;html=1;exitX=1;exitY=0.5;exitDx=0;exitDy=0;strokeColor=default;align=center;verticalAlign=middle;fontFamily=Helvetica;fontSize=12;fontColor=default;labelBackgroundColor=default;startSize=8;endArrow=none;endFill=0;endSize=8;" edge="1" parent="1" source="_TytWp_ZO3NwQASoRcPg-32" target="_TytWp_ZO3NwQASoRcPg-1">
          <mxGeometry relative="1" as="geometry" />
        </mxCell>
        <mxCell id="_TytWp_ZO3NwQASoRcPg-40" value="N" style="edgeLabel;html=1;align=center;verticalAlign=middle;resizable=0;points=[];fontSize=12;fontFamily=Helvetica;fontColor=default;labelBackgroundColor=default;" vertex="1" connectable="0" parent="_TytWp_ZO3NwQASoRcPg-37">
          <mxGeometry x="0.6318" relative="1" as="geometry">
            <mxPoint as="offset" />
          </mxGeometry>
        </mxCell>
        <mxCell id="_TytWp_ZO3NwQASoRcPg-38" style="edgeStyle=none;curved=1;rounded=0;orthogonalLoop=1;jettySize=auto;html=1;exitX=0;exitY=0.5;exitDx=0;exitDy=0;entryX=1;entryY=0.5;entryDx=0;entryDy=0;strokeColor=default;align=center;verticalAlign=middle;fontFamily=Helvetica;fontSize=12;fontColor=default;labelBackgroundColor=default;startSize=8;endArrow=none;endFill=0;endSize=8;" edge="1" parent="1" source="_TytWp_ZO3NwQASoRcPg-32" target="_TytWp_ZO3NwQASoRcPg-15">
          <mxGeometry relative="1" as="geometry" />
        </mxCell>
        <mxCell id="_TytWp_ZO3NwQASoRcPg-39" value="N" style="edgeLabel;html=1;align=center;verticalAlign=middle;resizable=0;points=[];fontSize=12;fontFamily=Helvetica;fontColor=default;labelBackgroundColor=default;" vertex="1" connectable="0" parent="_TytWp_ZO3NwQASoRcPg-38">
          <mxGeometry x="0.6564" relative="1" as="geometry">
            <mxPoint as="offset" />
          </mxGeometry>
        </mxCell>
        <mxCell id="_TytWp_ZO3NwQASoRcPg-32" value="possui" style="rhombus;whiteSpace=wrap;html=1;fontFamily=Helvetica;fontSize=12;fontColor=default;labelBackgroundColor=default;" vertex="1" parent="1">
          <mxGeometry x="-233" y="52" width="151" height="80" as="geometry" />
        </mxCell>
        <mxCell id="_TytWp_ZO3NwQASoRcPg-34" style="edgeStyle=none;curved=1;rounded=0;orthogonalLoop=1;jettySize=auto;html=1;exitX=1;exitY=0.5;exitDx=0;exitDy=0;strokeColor=default;align=center;verticalAlign=middle;fontFamily=Helvetica;fontSize=12;fontColor=default;labelBackgroundColor=default;startSize=8;endArrow=none;endFill=0;endSize=8;" edge="1" parent="1" source="_TytWp_ZO3NwQASoRcPg-33" target="_TytWp_ZO3NwQASoRcPg-10">
          <mxGeometry relative="1" as="geometry" />
        </mxCell>
        <mxCell id="_TytWp_ZO3NwQASoRcPg-42" value="1" style="edgeLabel;html=1;align=center;verticalAlign=middle;resizable=0;points=[];fontSize=12;fontFamily=Helvetica;fontColor=default;labelBackgroundColor=default;" vertex="1" connectable="0" parent="_TytWp_ZO3NwQASoRcPg-34">
          <mxGeometry x="0.652" y="-2" relative="1" as="geometry">
            <mxPoint as="offset" />
          </mxGeometry>
        </mxCell>
        <mxCell id="_TytWp_ZO3NwQASoRcPg-33" value="possui" style="rhombus;whiteSpace=wrap;html=1;fontFamily=Helvetica;fontSize=12;fontColor=default;labelBackgroundColor=default;" vertex="1" parent="1">
          <mxGeometry x="440" y="52" width="151" height="80" as="geometry" />
        </mxCell>
      </root>
    </mxGraphModel>
  </diagram>
</mxfile>
